<?xml version="1.0" encoding="iso-8859-1"?>
<!-- Generator: Adobe Illustrator 19.0.0, SVG Export Plug-In . SVG Version: 6.00 Build 0)  -->
<svg version="1.1" id="Capa_1" xmlns="http://www.w3.org/2000/svg" xmlns:xlink="http://www.w3.org/1999/xlink" x="0px" y="0px"
	 viewBox="0 0 512 512" style="enable-background:new 0 0 512 512;" xml:space="preserve">
<path style="fill:#FC4747;" d="M390.03,466.645v39.174c0,3.414-2.767,6.181-6.181,6.181H128.151c-3.414,0-6.181-2.767-6.181-6.181
	v-39.174c0-26.746,7.836-51.665,21.349-72.578c2.813-4.39,5.895-8.593,9.206-12.61c3.207-3.913,6.663-7.649,10.306-11.167
	c7.784-7.525,16.502-14.125,25.936-19.605c19.761-11.5,42.729-18.08,67.233-18.08s47.472,6.58,67.233,18.08
	c9.445,5.47,18.152,12.07,25.936,19.605c0.54,0.529,1.079,1.048,1.609,1.578c3.051,3.051,5.947,6.248,8.697,9.579
	c3.311,4.017,6.393,8.22,9.216,12.61C382.194,414.97,390.03,439.889,390.03,466.645z"/>
<path style="fill:#E20F0A;" d="M368.691,394.057c-0.82,0.976-1.692,1.93-2.615,2.854l-79.168,79.179
	c-8.261,8.251-19.232,12.797-30.908,12.797s-22.646-4.546-30.908-12.797l-79.168-79.179c-0.924-0.924-1.785-1.868-2.605-2.844
	c2.813-4.39,5.895-8.593,9.206-12.61c3.207-3.913,6.663-7.649,10.306-11.167c7.784-7.525,16.502-14.125,25.936-19.605
	c19.761-11.5,42.729-18.08,67.233-18.08s47.472,6.58,67.233,18.08c9.445,5.47,18.152,12.07,25.936,19.605
	c0.54,0.529,1.079,1.048,1.609,1.578c3.051,3.051,5.947,6.248,8.697,9.579C362.786,385.463,365.868,389.667,368.691,394.057z"/>
<rect x="198.36" y="409.14" style="fill:#13955E;" width="115.28" height="102.86"/>
<path style="fill:#37CC82;" d="M263.726,478.931V512h-15.453v-33.069c0-4.265,3.461-7.726,7.726-7.726
	C260.265,471.205,263.726,474.666,263.726,478.931z"/>
<g>
	<path style="fill:#0F7750;" d="M226.702,453.96V512h-15.453v-58.04c0-4.265,3.461-7.726,7.726-7.726
		C223.24,446.233,226.702,449.695,226.702,453.96z"/>
	<path style="fill:#0F7750;" d="M300.751,453.96V512h-15.453v-58.04c0-4.265,3.461-7.726,7.726-7.726
		C297.29,446.233,300.751,449.695,300.751,453.96z"/>
	<path style="fill:#0F7750;" d="M313.643,409.137v40.217l-26.735,26.735c-8.261,8.251-19.232,12.797-30.908,12.797
		s-22.646-4.546-30.908-12.797l-26.735-26.735v-40.217H313.643z"/>
</g>
<path style="fill:#1DB573;" d="M352.615,340.721l3.923,3.923c5.874,5.874,8.822,13.554,8.853,21.255
	c0.031,7.763-2.927,15.547-8.853,21.473l-79.179,79.168c-11.79,11.801-30.928,11.801-42.719,0l-79.179-79.168
	c-11.801-11.8-11.801-30.928,0-42.729l3.923-3.923c-21.473-15.983-38.515-37.944-49.049-65.178
	c-7.649-19.792-11.873-42.366-11.873-67.44C98.462,105.603,134.072,0,256,0s157.538,105.603,157.538,208.102
	C413.538,267.707,389.688,313.134,352.615,340.721z"/>
<path style="fill:#13955E;" d="M256,339.025c-29.98,0-57.964-14.525-78.798-40.9c-20.1-25.446-31.17-59.096-31.17-94.752v-25.409
	c0-18.941,8.526-36.537,23.392-48.276l59.101-46.668c7.791-6.152,17.548-9.54,27.475-9.54s19.685,3.388,27.475,9.54l59.1,46.668
	c14.866,11.739,23.392,29.335,23.392,48.276v25.409c0,35.656-11.069,69.306-31.17,94.752C313.964,324.5,285.98,339.025,256,339.025z
	"/>
<path style="fill:#37CC82;" d="M407.944,141.814C390.113,73.273,345.869,18.941,256,18.941S121.887,73.273,104.056,141.814
	C118.068,64.618,160.63,0,256,0S393.932,64.618,407.944,141.814z"/>
<path style="fill:#FECBAA;" d="M352.584,177.838v25.542c0,67.513-43.248,122.25-96.584,122.25s-96.584-54.737-96.584-122.25v-25.293
	c0-14.8,6.808-28.77,18.464-37.892l59.719-46.746c11.282-8.832,27.151-8.76,38.349,0.166l58.494,46.58
	C345.9,149.328,352.584,163.184,352.584,177.838z"/>
<path style="fill:#FEDFC5;" d="M256,312.138c-45.817,0-83.092-48.789-83.092-108.758v-25.292c0-10.72,4.843-20.658,13.288-27.268
	l59.719-46.746c3.099-2.426,6.817-3.709,10.753-3.709c3.992,0,7.751,1.315,10.871,3.801l58.5,46.583
	c8.294,6.612,13.054,16.487,13.054,27.089v25.541C339.092,263.349,301.817,312.138,256,312.138z"/>
<path style="fill:#FECBAA;" d="M352.584,177.838v20.633l-7.068-4.349c-0.042-0.021-4.909-2.999-12.714-7.016
	c-16.865-8.728-49.257-23.352-76.802-23.352c-27.524,0-59.916,14.613-76.771,23.331c-7.836,4.037-12.704,7.016-12.755,7.047
	l-7.057,4.328v-20.373c0-14.8,6.808-28.77,18.464-37.892L237.6,93.449c11.282-8.832,27.151-8.76,38.349,0.166l58.494,46.58
	C345.9,149.328,352.584,163.184,352.584,177.838z"/>
<path style="fill:#4E7693;" d="M352.584,177.838v4.795c0,0-5.158-3.176-13.596-7.525c-18.505-9.569-52.807-24.846-82.988-24.846
	c-30.171,0-64.451,15.267-82.967,24.836c-8.448,4.359-13.617,7.535-13.617,7.535v-4.546c0-14.8,6.808-28.77,18.464-37.892
	l59.719-46.746c11.282-8.832,27.151-8.76,38.349,0.166l58.494,46.58C345.9,149.328,352.584,163.184,352.584,177.838z"/>
<path style="fill:#618BAA;" d="M338.988,175.109c-18.505-9.569-52.807-24.846-82.988-24.846c-30.171,0-64.451,15.267-82.967,24.836
	c0.81-9.559,5.511-18.287,13.16-24.276l59.719-46.746c3.103-2.429,6.819-3.716,10.752-3.716c3.996,0,7.753,1.318,10.877,3.809
	l58.494,46.579C333.612,156.79,338.24,165.55,338.988,175.109z"/>
<g>
	<path style="fill:#864A2D;" d="M256,285.9c-13.98,0-26.073-11.875-28.757-28.236c-0.69-4.211,2.163-8.184,6.375-8.875
		c4.212-0.689,8.184,2.163,8.875,6.375c1.452,8.856,7.132,15.284,13.507,15.284s12.055-6.428,13.507-15.284
		c0.691-4.211,4.672-7.065,8.875-6.375c4.211,0.691,7.065,4.664,6.375,8.875C282.073,274.025,269.98,285.9,256,285.9z"/>
	<path style="fill:#864A2D;" d="M212.066,221.973c-4.267,0-7.726-3.459-7.726-7.726V200.86c0-4.267,3.459-7.726,7.726-7.726
		s7.726,3.459,7.726,7.726v13.387C219.793,218.514,216.333,221.973,212.066,221.973z"/>
	<path style="fill:#864A2D;" d="M299.934,221.973c-4.267,0-7.726-3.459-7.726-7.726V200.86c0-4.267,3.459-7.726,7.726-7.726
		s7.726,3.459,7.726,7.726v13.387C307.66,218.514,304.201,221.973,299.934,221.973z"/>
</g>
<g>
	<path style="fill:#13955E;" d="M288.161,398.377c-1.041,0-2.098-0.211-3.111-0.658l-89.808-39.571
		c-3.905-1.72-5.676-6.281-3.955-10.186c1.721-3.906,6.282-5.677,10.186-3.955l89.808,39.571c3.905,1.72,5.676,6.281,3.955,10.186
		C293.961,396.655,291.13,398.377,288.161,398.377z"/>
	<path style="fill:#13955E;" d="M217.578,394.8c-1.041,0-2.098-0.211-3.111-0.658l-20.077-8.847
		c-3.905-1.721-5.676-6.281-3.955-10.186c1.72-3.905,6.282-5.677,10.186-3.955l20.077,8.847c3.905,1.721,5.676,6.281,3.955,10.186
		C223.379,393.079,220.547,394.8,217.578,394.8z"/>
</g>
<g>
</g>
<g>
</g>
<g>
</g>
<g>
</g>
<g>
</g>
<g>
</g>
<g>
</g>
<g>
</g>
<g>
</g>
<g>
</g>
<g>
</g>
<g>
</g>
<g>
</g>
<g>
</g>
<g>
</g>
</svg>
