<svg id="Capa_1" enable-background="new 0 0 512 512" height="512" viewBox="0 0 512 512" width="512" xmlns="http://www.w3.org/2000/svg"><g><g><path d="m460.098 7.5v425.76l-363.65 31.73-44.55 3.89v-423.01c0-21.19 17.18-38.37 38.37-38.37z" fill="#8bc852"/><path d="m96.448 7.5v457.49l-44.55 3.89v-423.01c0-21.19 17.18-38.37 38.37-38.37z" fill="#6ea533"/><path d="m460.098 433.26v71.24h-372.58c-17.02 0-31.26-11.94-34.78-27.9-.55-2.49-.84-5.07-.84-7.72 0-9.84 3.99-18.74 10.43-25.19 6.45-6.44 15.35-10.43 25.19-10.43z" fill="#f6f1f1"/><path d="m460.098 476.6v27.9h-372.58c-17.02 0-31.26-11.94-34.78-27.9z" fill="#6ea533"/><path d="m420.098 95v250.76c-26.23 0-47.5 21.27-47.5 47.5h-197.58c0-26.23-21.27-47.5-47.5-47.5v-250.76c26.23 0 47.5-21.27 47.5-47.5h197.58c0 26.23 21.27 47.5 47.5 47.5z" fill="#6ea533"/><g fill="#f6e266"><path d="m369.289 251.407c.308-.302.613-.606.916-.911 6.218-6.285 16.715-.106 14.36 8.416-5.06 18.308-14.828 35.586-29.303 49.921-44.238 43.81-115.102 43.55-159.033-.568-43.804-43.991-43.747-115.166.172-159.085 14.248-14.248 31.364-23.88 49.491-28.897 8.593-2.378 14.716 8.138 8.385 14.415-.084.083-.168.167-.252.251-31.996 31.996-31.996 83.868 0 115.864 31.863 31.864 83.082 32.135 115.264.594z"/><path d="m329.259 134.947 9.66 19.574c1.182 2.395 3.466 4.054 6.109 4.438l21.601 3.139c6.655.967 9.312 9.145 4.497 13.839l-15.631 15.236c-1.912 1.864-2.785 4.55-2.333 7.181l3.69 21.514c1.137 6.628-5.82 11.682-11.772 8.553l-19.321-10.158c-2.364-1.243-5.187-1.243-7.551 0l-19.321 10.158c-5.952 3.129-12.909-1.925-11.772-8.553l3.69-21.514c.451-2.632-.421-5.318-2.333-7.181l-15.631-15.236c-4.815-4.694-2.158-12.872 4.497-13.839l21.601-3.139c2.643-.384 4.927-2.044 6.109-4.438l9.66-19.574c2.976-6.03 11.575-6.03 14.551 0z"/></g></g><g><path d="m460.102 0h-369.834c-25.292 0-45.87 20.577-45.87 45.87v423.011c0 23.776 19.343 43.119 43.119 43.119h372.585c4.142 0 7.5-3.358 7.5-7.5v-497c0-4.142-3.358-7.5-7.5-7.5zm-369.834 15h362.334v410.763h-365.085c-10.741 0-20.562 3.965-28.119 10.486v-390.379c0-17.022 13.848-30.87 30.87-30.87zm-2.751 482c-9.899 0-18.614-5.146-23.626-12.9h321.009c4.142 0 7.5-3.358 7.5-7.5s-3.358-7.5-7.5-7.5h-325.496c-.001-.073-.006-.146-.006-.219 0-15.505 12.614-28.119 28.119-28.119h365.085v28.338h-37.702c-4.142 0-7.5 3.358-7.5 7.5s3.358 7.5 7.5 7.5h37.702v12.9z"/><path d="m127.52 353.26c22.056 0 40 17.944 40 40 0 4.142 3.358 7.5 7.5 7.5h197.58c4.142 0 7.5-3.358 7.5-7.5 0-22.056 17.944-40 40-40 4.142 0 7.5-3.358 7.5-7.5v-250.76c0-4.142-3.358-7.5-7.5-7.5-22.056 0-40-17.944-40-40 0-4.142-3.358-7.5-7.5-7.5h-197.58c-4.142 0-7.5 3.358-7.5 7.5 0 22.056-17.944 40-40 40-4.142 0-7.5 3.358-7.5 7.5v35.42c0 4.142 3.358 7.5 7.5 7.5s7.5-3.358 7.5-7.5v-28.429c24.34-3.333 43.658-22.651 46.991-46.991h183.599c3.333 24.34 22.651 43.658 46.991 46.991v236.778c-24.34 3.333-43.658 22.651-46.991 46.991h-183.599c-3.333-24.34-22.651-43.658-46.991-46.991v-178.349c0-4.142-3.358-7.5-7.5-7.5s-7.5 3.358-7.5 7.5v185.34c0 4.142 3.358 7.5 7.5 7.5z"/><path d="m243.891 113.055c-19.874 5.5-38.129 16.158-52.794 30.822-46.732 46.732-46.814 122.851-.184 169.68 22.658 22.755 52.735 35.35 84.689 35.464.148 0 .293.001.441.001 31.791-.001 61.785-12.371 84.495-34.861 14.896-14.751 25.703-33.166 31.255-53.252 1.987-7.189-1.02-14.534-7.483-18.276-6.417-3.717-14.229-2.676-19.438 2.589-.274.277-.551.553-.831.826 0 .001-.001.001-.001.002-14.049 13.769-32.527 21.337-52.07 21.337-.131 0-.262 0-.393-.001-19.688-.102-38.243-7.872-52.249-21.876-29.019-29.02-29.019-76.238 0-105.257l.229-.229c5.295-5.25 6.347-13.099 2.618-19.53-3.736-6.442-11.083-9.429-18.284-7.439zm5.098 16.325-.268.267c-34.868 34.868-34.868 91.602 0 126.47 16.817 16.817 39.112 26.147 62.777 26.27.159 0 .314.001.473.001 23.491 0 45.696-9.09 62.567-25.625.336-.329.669-.661.998-.993.235-.237.557-.562 1.257-.157.776.45.624 1.002.542 1.3-4.855 17.568-14.313 33.678-27.352 46.59-19.882 19.69-46.127 30.519-73.942 30.519-.128 0-.257 0-.385-.001-27.956-.101-54.277-11.127-74.114-31.048-40.807-40.981-40.735-107.593.161-148.49 12.835-12.835 28.807-22.162 46.188-26.971.123-.034.277-.077.444-.077.277 0 .592.117.863.584.426.732.033 1.121-.209 1.361z"/><path d="m376.361 181.308c4.287-4.179 5.801-10.312 3.951-16.005-1.85-5.694-6.68-9.766-12.604-10.626l-21.601-3.139c-.2-.029-.373-.155-.462-.336l-9.661-19.574c-2.649-5.368-8.015-8.703-14.001-8.703s-11.352 3.335-14.001 8.703l-9.66 19.574c-.09.181-.263.307-.463.336l-21.601 3.139c-5.925.86-10.754 4.932-12.604 10.626s-.336 11.827 3.951 16.005l15.631 15.237c.145.141.21.344.176.542l-3.69 21.514c-1.012 5.901 1.368 11.752 6.211 15.271 2.737 1.989 5.939 2.999 9.163 2.999 2.481 0 4.976-.599 7.28-1.81l19.321-10.158c.179-.094.392-.094.571 0l19.321 10.158c5.297 2.785 11.599 2.331 16.443-1.188 4.843-3.519 7.224-9.371 6.211-15.271l-3.69-21.515c-.034-.198.032-.401.177-.542zm-26.1 4.495c-3.682 3.588-5.36 8.755-4.491 13.821l3.69 21.514c.026.15.064.376-.244.601-.31.224-.511.118-.646.046l-19.321-10.158c-2.274-1.196-4.77-1.793-7.265-1.793-2.496 0-4.991.598-7.266 1.793l-19.321 10.158c-.134.071-.337.177-.646-.047-.308-.224-.27-.45-.244-.6l3.69-21.515c.869-5.065-.81-10.231-4.49-13.819l-15.631-15.237c-.108-.106-.273-.266-.155-.629.118-.362.345-.396.495-.417l21.602-3.139c5.086-.739 9.48-3.932 11.756-8.541l9.66-19.574c.067-.136.168-.342.55-.342s.483.206.55.342l9.661 19.574c2.274 4.609 6.669 7.802 11.756 8.542l21.602 3.139c.15.022.377.055.495.417.118.363-.046.523-.155.629z"/></g></g></svg>